# xmcd
#
# Track frame offsets:
#	150
#	10610
#	26495
#	41165
#	51410
#	66970
#	84693
#	94688
#	108888
#	124403
#	139978
#	156673
#	170450
#	183373
#	197578
#	212158
#	224415
#	239815
#
# Disc length: 3290 seconds
#
# Revision: 0
# Processed by: cddbd v1.5.2PL0 Copyright (c) Steve Scherf et al.
# Submitted via: EasyCDDAExtractor 16.0.8.2
#
DISCID=110cd812
DTITLE=Χουλιαράς Νίκος - Μεγάλες επιτυχίες-N. Χουλιαράς
DYEAR=1993
DGENRE=Ποικίλη
TTITLE0=Χουλιαράς Νίκος-χορωδία - Θα σού το πω με ''Α''
TTITLE1=Χουλιαράς Νίκος-Αστεριάδη Πόπη-χορ. - Το σπαθί
TTITLE2=Χουλιαράς Νίκος-Αστεριάδη Πόπη-χορ. - Στην Πατινό
TTITLE3=Κωχ Μαρίζα-Χουλιαράς Νίκος - Άναψα κλωνί δαδί
TTITLE4=Χουλιαράς Νίκος - Ο νοτιάς στην ξενητειά
TTITLE5=Χουλιαράς Νίκος-Αστεριάδη Πόπη - Χαλασιά μου
TTITLE6=Χουλιαράς Νίκος - Δόντια πυκνά
TTITLE7=Αστεριάδη Πόπη - Η μικρή Νανώ
TTITLE8=Χουλιαράς Νίκος - Η κούπα
TTITLE9=Χουλιαράς Νίκος-Κωχ Μαρίζα - Τα 18 καράβια
TTITLE10=Χουλιαράς Νίκος-Αστεριάδη Πόπη - Ζαλιάρικο
TTITLE11=Χουλιαράς Νίκος - Στης πικροδάφνης τον ανθό [ηπειρώτικο]
TTITLE12=Αρλέτα - Το πέτρινο χαμόγελο
TTITLE13=Χουλιαράς Νίκος - Η μπαλλάντα του χαμού
TTITLE14=Χουλιαράς Νίκος - Οι σαράντα πέντε [κιθ. Νότης Μαυρουδής]
TTITLE15=Χουλιαράς Νίκος - Το τσιμεντένιο δάσος [κιθ. Νότης Μαυρουδής]
TTITLE16=Χουλιαράς Νίκος - Γιάννη μου το μαντήλι σου [ηπειρ., διασκ. ιδίου]
TTITLE17=Χουλιαράς Νίκος - Ο γιατρός [διασκ. Ν. Χουλιαρά]
EXTD=
EXTT0=
EXTT1=
EXTT2=
EXTT3=
EXTT4=
EXTT5=
EXTT6=
EXTT7=
EXTT8=
EXTT9=
EXTT10=
EXTT11=
EXTT12=
EXTT13=
EXTT14=
EXTT15=
EXTT16=
EXTT17=
PLAYORDER=
